<?xml version="1.0" encoding="UTF-8" standalone="no"?><!DOCTYPE svg PUBLIC "-//W3C//DTD SVG 1.1//EN" "http://www.w3.org/Graphics/SVG/1.1/DTD/svg11.dtd"><svg width="100%" height="100%" viewBox="0 0 201 213" version="1.1" xmlns="http://www.w3.org/2000/svg" xmlns:xlink="http://www.w3.org/1999/xlink" xml:space="preserve" xmlns:serif="http://www.serif.com/" style="fill-rule:evenodd;clip-rule:evenodd;stroke-linejoin:round;stroke-miterlimit:2;"><path id="magnifyglass" d="M120.488,137.524c-12.542,9.215 -28.022,14.66 -44.764,14.66c-41.788,0 -75.714,-33.926 -75.714,-75.714c0,-41.787 33.926,-75.714 75.714,-75.714c41.788,0 75.714,33.927 75.714,75.714c0,19.356 -7.279,37.025 -19.246,50.418l65.766,72.418c2.934,3.231 2.693,8.236 -0.538,11.17c-3.231,2.934 -8.236,2.693 -11.17,-0.538l-65.762,-72.414Zm1,-22.423c8.817,-10.432 14.135,-23.915 14.135,-38.631c0,-33.059 -26.84,-59.899 -59.899,-59.899c-33.059,0 -59.899,26.84 -59.899,59.899c-0,33.059 26.84,59.899 59.899,59.899c12.649,0 24.387,-3.929 34.06,-10.632c4.355,-3.018 8.292,-6.598 11.704,-10.636Z" style="fill:#7346b9;"/></svg>